<svg width="24" height="24" viewBox="0 0 24 24" fill="none" xmlns="http://www.w3.org/2000/svg">
<path fill-rule="evenodd" clip-rule="evenodd" d="M8.11172 4.85171C8.25735 4.38276 8.92109 4.38276 9.06673 4.85171L10.0316 7.95871C10.0966 8.16788 10.2901 8.31042 10.5091 8.31042H11.3791C11.9677 8.31042 12.3878 8.88073 12.2132 9.4428V9.4428C12.0998 9.80816 11.7617 10.0571 11.3791 10.0571H8.52059C7.086 10.0571 6.4895 11.9779 7.65012 12.8601L8.30143 13.3552C8.35857 13.3986 8.34378 13.4933 8.28664 13.5368V13.5368L5.7703 15.4496C5.38296 15.744 4.84591 15.3679 4.99022 14.9032L5.97481 11.7327C6.03716 11.532 5.96726 11.3136 5.79989 11.1864L3.1979 9.20847C2.81668 8.91868 3.02162 8.31042 3.50049 8.31042H6.66933C6.88835 8.31042 7.08188 8.16788 7.14684 7.95871L8.11172 4.85171ZM13.1212 9.8617L13.603 8.31042L14.0435 6.89179C14.1913 6.41595 14.8347 6.41595 14.9825 6.89179L16.1754 10.7332C16.2415 10.946 16.4311 11.0901 16.6449 11.0901H20.5054C20.9836 11.0901 21.1824 11.7303 20.7956 12.0244L17.6724 14.3986C17.4994 14.5301 17.427 14.7632 17.493 14.976L18.686 18.8174C18.8338 19.2933 18.3132 19.689 17.9264 19.3949L14.8032 17.0207C14.6301 16.8892 14.3959 16.8892 14.2229 17.0207L11.0997 19.3949C10.7128 19.689 10.1922 19.2933 10.34 18.8174L11.3901 15.4359L11.533 14.976C11.599 14.7632 11.5267 14.5301 11.3536 14.3986L8.23043 12.0244C7.89192 11.7671 8.00183 11.2448 8.35496 11.1182C8.4054 11.1001 8.46081 11.0901 8.52059 11.0901C8.52059 11.0901 8.5206 11.0901 8.5206 11.0901H12.3811C12.595 11.0901 12.7845 10.946 12.8506 10.7332L13.1212 9.8617Z" fill="url(#paint0_linear_10_2726)"/>
<defs>
<linearGradient id="paint0_linear_10_2726" x1="2.99951" y1="11.9979" x2="21" y2="11.9979" gradientUnits="userSpaceOnUse">
<stop stop-color="#A6A6F2"/>
<stop offset="0.324773" stop-color="#B3A6F2"/>
<stop offset="0.661261" stop-color="#BFA6F2"/>
<stop offset="0.984375" stop-color="#CCA6F2"/>
</linearGradient>
</defs>
</svg>
